<svg version="1.1" id="Layer_1" xmlns="http://www.w3.org/2000/svg" xmlns:xlink="http://www.w3.org/1999/xlink" x="0px" y="0px"
	 width="100%" viewBox="0 0 848 736" enable-background="new 0 0 848 736" xml:space="preserve">
<path fill="#000000" opacity="1.000000" stroke="none" 
	d="
M783.570251,496.390930 
	C780.104370,501.495270 775.743958,504.977356 770.672058,507.729187 
	C706.416382,542.591797 642.169128,577.470093 577.943665,612.388245 
	C560.101562,622.088684 542.722839,632.714966 524.064270,640.800964 
	C505.301086,648.932190 485.513702,651.511658 465.073975,650.816772 
	C438.990265,649.929932 414.263916,642.646179 389.453613,635.777100 
	C359.484924,627.479858 329.662445,618.654419 299.778503,610.051086 
	C270.691498,601.677246 241.610657,593.281738 212.517609,584.928772 
	C207.250931,583.416687 205.932343,584.221985 206.354645,589.611389 
	C207.462708,603.752319 199.700470,609.791138 186.310501,610.357117 
	C177.153748,610.744324 168.009644,611.082153 158.846970,611.079468 
	C153.264328,611.077820 149.232452,608.995422 146.027191,604.077637 
	C133.460709,584.796936 122.690254,564.644958 113.343384,543.582153 
	C106.789970,528.814270 101.148201,513.769470 96.261742,498.455017 
	C91.925690,484.865631 88.253754,471.031036 85.743027,456.941010 
	C82.980873,441.439972 80.086273,425.987427 79.541161,410.154480 
	C79.291245,402.895386 77.200172,395.737946 76.773972,388.401337 
	C76.496033,383.616943 78.396553,381.859375 83.102745,381.808075 
	C105.424889,381.564667 127.746986,381.217957 150.064713,380.713562 
	C160.383820,380.480316 170.707474,380.007202 181.002777,379.273682 
	C193.204865,378.404388 201.623245,385.594635 201.913757,397.901001 
	C202.182434,409.283875 201.300049,408.218445 212.825333,407.883087 
	C232.299149,407.316467 251.765121,406.348541 271.241821,406.071594 
	C279.834167,405.949432 288.542114,405.977448 296.987030,408.406006 
	C298.702728,408.899414 300.631805,408.862793 302.445953,408.764648 
	C309.336243,408.391693 316.225159,407.046967 322.843628,410.643372 
	C324.956451,411.791473 327.702820,411.708557 330.205505,411.075897 
	C336.611725,409.456421 342.028748,413.644745 348.184174,414.188385 
	C355.078949,414.797333 362.055023,416.264954 368.731598,418.757507 
	C375.294617,421.207703 381.890106,423.455963 387.142670,428.301086 
	C389.537720,430.510345 392.805176,430.076996 395.441681,431.479095 
	C402.789642,435.386719 409.895447,439.701813 417.894440,442.382507 
	C431.263123,446.862732 444.511017,451.699738 458.562225,453.662201 
	C477.993103,456.376038 497.487610,458.495239 517.040527,460.152557 
	C527.694275,461.055603 538.375305,461.198395 548.992004,460.750977 
	C562.865906,460.166290 573.239502,466.129578 582.146545,475.859985 
	C584.242249,478.149384 584.898987,481.007202 585.765015,483.916382 
	C588.141785,491.900360 589.117737,499.615265 585.501404,507.604218 
	C581.054993,517.427002 573.759705,523.667175 563.426086,526.143616 
	C558.762573,527.261230 553.882690,527.840820 549.083069,527.963135 
	C526.438049,528.540466 503.785522,528.815369 481.138153,529.311218 
	C454.328583,529.898315 427.521454,530.596985 400.713776,531.267334 
	C399.386139,531.300537 398.057007,531.480042 396.739258,531.666870 
	C389.385101,532.708984 387.194000,534.379395 387.250061,538.854675 
	C387.317688,544.256592 392.480103,549.673462 398.271912,549.807617 
	C405.430023,549.973450 412.599609,549.701965 419.763153,549.564148 
	C446.907318,549.042114 474.031250,547.397461 501.188934,547.778992 
	C518.195862,548.017822 535.189087,547.467529 552.132263,546.460754 
	C566.156372,545.627441 579.785583,542.386108 591.328369,533.475342 
	C591.855530,533.068420 592.544250,532.772278 592.894104,532.248474 
	C600.779846,520.441040 614.095642,517.974854 625.972961,513.179443 
	C653.738770,501.968964 681.505920,490.747131 709.477295,480.066284 
	C724.371094,474.379181 739.089172,468.040100 754.660278,464.298309 
	C760.191650,462.969086 766.028748,462.978912 771.541565,464.135010 
	C785.963013,467.159271 791.567993,482.172699 783.570251,496.390930 
z"/>
<path fill="#000000" opacity="1.000000" stroke="none" 
	d="
M585.586670,188.453613 
	C554.512268,164.863403 523.744751,141.460968 492.912537,118.144081 
	C483.492340,111.020065 479.820679,111.203514 470.274261,118.451599 
	C422.779938,154.511612 375.282776,190.567947 327.768768,226.602036 
	C318.213684,233.848511 308.648407,241.085373 298.948090,248.134399 
	C295.543213,250.608688 294.075775,253.402222 294.068756,257.733887 
	C294.042114,274.201691 292.876312,290.696777 293.505432,307.129303 
	C294.328552,328.628265 293.715698,350.109802 294.063812,371.595245 
	C294.182526,378.921692 293.925507,379.020081 286.458954,379.036469 
	C277.126160,379.056976 267.793243,379.097015 258.460724,379.170166 
	C252.014679,379.220703 251.853928,379.118042 251.845535,372.397430 
	C251.811371,345.064636 251.800400,317.731812 251.773026,290.399017 
	C251.766403,283.772675 251.623123,283.809723 245.415039,285.659058 
	C234.485962,288.914642 224.231537,287.775787 214.392883,281.426270 
	C200.791458,272.648407 198.836182,249.996460 211.309952,239.794647 
	C225.245209,228.397537 239.854019,217.898682 254.019592,206.814514 
	C260.709351,201.579926 267.571686,196.563812 274.405579,191.516083 
	C280.608490,186.934433 283.178894,180.849594 283.829041,173.153625 
	C285.165253,157.336533 284.655914,141.522949 284.579132,125.715065 
	C284.539581,117.576103 283.869202,109.466942 284.602325,101.298981 
	C285.210632,94.521591 289.084625,89.524292 295.851776,88.809868 
	C311.619629,87.145248 327.462982,88.077454 343.259094,88.129097 
	C353.141357,88.161407 358.093689,94.424072 358.160522,104.473457 
	C358.197083,109.973099 358.149567,115.473511 358.217773,120.972610 
	C358.237518,122.562538 357.653320,124.625786 359.603394,125.396088 
	C361.383972,126.099442 362.674957,124.527267 363.975281,123.538086 
	C389.427216,104.176010 414.871307,84.803589 440.316681,65.432892 
	C444.823853,62.001740 449.420105,58.680511 453.820526,55.117470 
	C472.523773,39.973255 490.890442,40.229202 509.628265,54.824841 
	C535.512207,74.986832 561.871033,94.538460 587.985352,114.405533 
	C618.739319,137.802292 649.432922,161.278442 680.184082,184.678940 
	C701.790710,201.120804 723.425354,217.526215 745.102844,233.874481 
	C750.466492,237.919464 755.566589,242.086838 758.535217,248.354355 
	C763.766052,259.398010 761.181824,271.726868 751.673523,279.418915 
	C741.066528,287.999878 729.275635,289.721832 716.508179,284.974091 
	C715.134460,284.463287 713.732300,284.029022 712.293335,283.542358 
	C710.937012,285.934753 711.378967,288.314270 711.376953,290.580475 
	C711.330750,341.223145 711.260803,391.866028 711.425720,442.508179 
	C711.441833,447.444885 710.078430,449.997345 705.233765,451.531372 
	C695.089417,454.743561 685.120972,458.516754 675.110901,462.144073 
	C672.173523,463.208435 670.672729,462.618011 670.608521,459.257935 
	C670.551270,456.265869 670.102234,453.278564 670.096680,450.288635 
	C669.977966,386.457153 669.853577,322.625610 669.897217,258.794189 
	C669.900513,253.972198 668.409912,250.890182 664.481201,247.961777 
	C638.166443,228.347580 612.049622,208.467850 585.586670,188.453613 
z"/>
<path fill="#000000" opacity="1.000000" stroke="none" 
	d="
M495.177917,265.487061 
	C495.178772,257.729065 495.293579,250.414597 495.077271,243.109924 
	C494.937805,238.399734 496.726501,236.510101 501.551300,236.822998 
	C510.163818,237.381485 518.808167,237.433807 527.427490,237.909286 
	C533.664062,238.253326 537.790710,242.117050 538.023621,248.376251 
	C538.357239,257.345581 538.112305,266.336090 538.134094,275.317535 
	C538.141418,278.330078 536.549988,279.318054 533.705444,279.297974 
	C522.395264,279.218079 511.083923,279.195587 499.773926,279.275146 
	C496.307953,279.299530 494.975220,277.718170 495.092804,274.416901 
	C495.193420,271.592407 495.137970,268.762360 495.177917,265.487061 
z"/>
<path fill="#000000" opacity="1.000000" stroke="none" 
	d="
M450.998108,279.236450 
	C444.338440,279.218872 438.176880,279.281372 432.018890,279.160400 
	C427.811218,279.077789 425.289215,277.615967 425.570618,272.529022 
	C425.993011,264.893982 425.600525,257.217072 425.689178,249.559540 
	C425.777771,241.908600 430.443207,237.040070 438.106262,236.867615 
	C446.593048,236.676605 455.088715,236.910187 463.577789,236.779846 
	C467.112244,236.725601 468.243896,238.355072 468.220947,241.633957 
	C468.143982,252.621948 468.122925,263.611389 468.225586,274.598938 
	C468.257568,278.021637 466.929962,279.430145 463.483398,279.277679 
	C459.495422,279.101227 455.493561,279.237671 450.998108,279.236450 
z"/>
<path fill="#000000" opacity="1.000000" stroke="none" 
	d="
M501.351929,344.196198 
	C498.325134,344.214661 496.130951,343.806122 496.400940,340.423462 
	C497.291046,329.270874 495.086395,318.208893 495.429443,307.052277 
	C495.551117,303.095367 496.853851,301.735016 500.683594,301.780304 
	C511.512268,301.908386 522.344543,301.903076 533.173157,301.767426 
	C536.851929,301.721344 538.252808,303.219879 538.186890,306.812378 
	C538.034119,315.140991 538.207092,323.476929 537.975769,331.802338 
	C537.755798,339.719788 533.323181,343.989655 525.300781,344.143677 
	C517.472473,344.293945 509.639252,344.192719 501.351929,344.196198 
z"/>
<path fill="#000000" opacity="1.000000" stroke="none" 
	d="
M468.129059,306.325500 
	C468.140289,317.268250 468.036652,327.742188 468.185181,338.212555 
	C468.243805,342.341797 466.949432,344.334229 462.474213,344.208527 
	C454.501678,343.984558 446.515137,344.290924 438.539886,344.121674 
	C430.483673,343.950745 427.998230,341.223663 427.995422,333.219910 
	C427.992645,325.240875 427.900482,317.261230 427.975952,309.283051 
	C428.034485,303.094849 429.238892,301.896027 435.215546,301.858978 
	C444.357941,301.802277 453.500916,301.852020 462.643463,301.812469 
	C465.523163,301.800018 468.104218,302.050720 468.129059,306.325500 
z"/>
</svg>